<svg width="1159" height="391" viewBox="0 0 1159 391" fill="none" xmlns="http://www.w3.org/2000/svg">
<path d="M0 0H1159V391H0V0Z" fill="#414141"/>
<path d="M163.371 219.368C151.766 219.368 141.91 217.832 133.803 214.76C125.782 211.688 119.68 207.251 115.499 201.448C111.318 195.56 109.227 188.392 109.227 179.944C109.227 171.496 111.318 164.371 115.499 158.568C119.68 152.68 125.782 148.2 133.803 145.128C141.91 142.056 151.766 140.52 163.371 140.52C163.542 140.52 164.011 140.52 164.779 140.52C165.632 140.52 166.443 140.52 167.211 140.52C168.064 140.52 168.534 140.52 168.619 140.52C180.139 140.52 189.867 142.056 197.803 145.128C205.824 148.2 211.883 152.68 215.979 158.568C220.075 164.456 222.123 171.581 222.123 179.944C222.123 188.221 220.075 195.347 215.979 201.32C211.968 207.208 206.038 211.688 198.187 214.76C190.422 217.832 180.907 219.368 169.643 219.368C169.387 219.368 168.79 219.368 167.851 219.368C166.912 219.368 165.974 219.368 165.035 219.368C164.182 219.368 163.627 219.368 163.371 219.368ZM165.291 203.368C165.547 203.368 165.888 203.368 166.315 203.368C166.742 203.368 167.04 203.368 167.211 203.368C175.062 203.368 181.547 202.515 186.667 200.808C191.872 199.016 195.755 196.413 198.315 193C200.875 189.501 202.155 185.107 202.155 179.816C202.155 174.525 200.832 170.173 198.187 166.76C195.542 163.347 191.659 160.829 186.539 159.208C181.504 157.501 175.147 156.648 167.467 156.648C167.296 156.648 166.955 156.648 166.443 156.648C166.016 156.648 165.632 156.648 165.291 156.648C157.184 156.648 150.486 157.459 145.195 159.08C139.904 160.701 135.936 163.261 133.291 166.76C130.646 170.173 129.323 174.568 129.323 179.944C129.323 185.32 130.731 189.757 133.547 193.256C136.363 196.669 140.416 199.229 145.707 200.936C151.083 202.557 157.611 203.368 165.291 203.368ZM156.203 228.968V131.56H175.275V228.968H156.203ZM268.356 226.024C261.017 226.024 254.489 224.488 248.772 221.416C243.14 218.344 238.66 214.163 235.332 208.872C232.089 203.496 230.468 197.395 230.468 190.568C230.468 183.656 232.089 177.555 235.332 172.264C238.66 166.888 243.14 162.707 248.772 159.72C254.489 156.648 261.017 155.112 268.356 155.112C275.609 155.112 282.095 156.648 287.812 159.72C293.529 162.707 298.009 166.845 301.252 172.136C304.495 177.427 306.116 183.571 306.116 190.568C306.116 197.395 304.495 203.496 301.252 208.872C298.009 214.163 293.529 218.344 287.812 221.416C282.095 224.488 275.609 226.024 268.356 226.024ZM268.356 209.64C271.684 209.64 274.671 208.872 277.316 207.336C279.961 205.8 282.052 203.624 283.588 200.808C285.124 197.907 285.892 194.493 285.892 190.568C285.892 186.557 285.124 183.144 283.588 180.328C282.052 177.512 279.961 175.336 277.316 173.8C274.671 172.264 271.684 171.496 268.356 171.496C265.028 171.496 262.041 172.264 259.396 173.8C256.751 175.336 254.617 177.512 252.996 180.328C251.46 183.144 250.692 186.557 250.692 190.568C250.692 194.493 251.46 197.907 252.996 200.808C254.617 203.624 256.751 205.8 259.396 207.336C262.041 208.872 265.028 209.64 268.356 209.64ZM332.07 225V167.912L336.55 172.52H308.774V156.136H375.206V172.52H347.43L351.91 167.912V225H332.07ZM415.231 226.024C407.892 226.024 401.364 224.488 395.647 221.416C390.015 218.344 385.535 214.163 382.207 208.872C378.964 203.496 377.343 197.395 377.343 190.568C377.343 183.656 378.964 177.555 382.207 172.264C385.535 166.888 390.015 162.707 395.647 159.72C401.364 156.648 407.892 155.112 415.231 155.112C422.484 155.112 428.97 156.648 434.687 159.72C440.404 162.707 444.884 166.845 448.127 172.136C451.37 177.427 452.991 183.571 452.991 190.568C452.991 197.395 451.37 203.496 448.127 208.872C444.884 214.163 440.404 218.344 434.687 221.416C428.97 224.488 422.484 226.024 415.231 226.024ZM415.231 209.64C418.559 209.64 421.546 208.872 424.191 207.336C426.836 205.8 428.927 203.624 430.463 200.808C431.999 197.907 432.767 194.493 432.767 190.568C432.767 186.557 431.999 183.144 430.463 180.328C428.927 177.512 426.836 175.336 424.191 173.8C421.546 172.264 418.559 171.496 415.231 171.496C411.903 171.496 408.916 172.264 406.271 173.8C403.626 175.336 401.492 177.512 399.871 180.328C398.335 183.144 397.567 186.557 397.567 190.568C397.567 194.493 398.335 197.907 399.871 200.808C401.492 203.624 403.626 205.8 406.271 207.336C408.916 208.872 411.903 209.64 415.231 209.64ZM466.725 225V156.136H521.893V172.52H482.085L486.565 168.168V225H466.725ZM573.051 226.024C567.248 226.024 562.171 224.744 557.819 222.184C553.467 219.624 550.054 215.741 547.579 210.536C545.19 205.245 543.995 198.589 543.995 190.568C543.995 182.461 545.147 175.805 547.451 170.6C549.755 165.395 553.083 161.512 557.435 158.952C561.787 156.392 566.992 155.112 573.051 155.112C579.536 155.112 585.339 156.605 590.459 159.592C595.664 162.493 599.76 166.589 602.747 171.88C605.819 177.171 607.355 183.4 607.355 190.568C607.355 197.821 605.819 204.093 602.747 209.384C599.76 214.675 595.664 218.771 590.459 221.672C585.339 224.573 579.536 226.024 573.051 226.024ZM532.347 249.832V156.136H551.419V170.216L551.035 190.696L552.315 211.048V249.832H532.347ZM569.595 209.64C572.923 209.64 575.867 208.872 578.427 207.336C581.072 205.8 583.163 203.624 584.699 200.808C586.32 197.907 587.131 194.493 587.131 190.568C587.131 186.557 586.32 183.144 584.699 180.328C583.163 177.512 581.072 175.336 578.427 173.8C575.867 172.264 572.923 171.496 569.595 171.496C566.267 171.496 563.28 172.264 560.635 173.8C557.99 175.336 555.899 177.512 554.363 180.328C552.827 183.144 552.059 186.557 552.059 190.568C552.059 194.493 552.827 197.907 554.363 200.808C555.899 203.624 557.99 205.8 560.635 207.336C563.28 208.872 566.267 209.64 569.595 209.64ZM661.441 225V211.56L660.161 208.616V184.552C660.161 180.285 658.838 176.957 656.193 174.568C653.633 172.179 649.665 170.984 644.289 170.984C640.62 170.984 636.993 171.581 633.409 172.776C629.91 173.885 626.924 175.421 624.449 177.384L617.281 163.432C621.036 160.787 625.558 158.739 630.849 157.288C636.14 155.837 641.516 155.112 646.977 155.112C657.473 155.112 665.622 157.587 671.425 162.536C677.228 167.485 680.129 175.208 680.129 185.704V225H661.441ZM640.449 226.024C635.073 226.024 630.465 225.128 626.625 223.336C622.785 221.459 619.841 218.941 617.793 215.784C615.745 212.627 614.721 209.085 614.721 205.16C614.721 201.064 615.702 197.48 617.665 194.408C619.713 191.336 622.913 188.947 627.265 187.24C631.617 185.448 637.292 184.552 644.289 184.552H662.593V196.2H646.465C641.772 196.2 638.529 196.968 636.737 198.504C635.03 200.04 634.177 201.96 634.177 204.264C634.177 206.824 635.158 208.872 637.121 210.408C639.169 211.859 641.942 212.584 645.441 212.584C648.769 212.584 651.756 211.816 654.401 210.28C657.046 208.659 658.966 206.312 660.161 203.24L663.233 212.456C661.782 216.893 659.137 220.264 655.297 222.568C651.457 224.872 646.508 226.024 640.449 226.024ZM743.811 226.536C743.64 226.536 743.171 226.536 742.403 226.536C741.635 226.536 740.91 226.536 740.227 226.536C739.544 226.536 739.075 226.536 738.819 226.536C723.886 226.28 712.323 223.08 704.131 216.936C695.939 210.792 691.843 201.917 691.843 190.312C691.843 178.877 695.896 170.173 704.003 164.2C712.195 158.141 723.928 155.069 739.203 154.984C739.374 154.984 739.8 154.984 740.483 154.984C741.251 154.984 741.976 154.984 742.659 154.984C743.342 154.984 743.768 154.984 743.939 154.984C759.384 154.984 771.331 157.971 779.779 163.944C788.312 169.917 792.579 178.707 792.579 190.312C792.579 202.088 788.312 211.091 779.779 217.32C771.331 223.464 759.342 226.536 743.811 226.536ZM743.171 211.176C750.254 211.176 756.014 210.451 760.451 209C764.888 207.464 768.131 205.16 770.179 202.088C772.312 198.931 773.379 195.005 773.379 190.312C773.379 185.789 772.355 182.077 770.307 179.176C768.259 176.189 764.974 173.971 760.451 172.52C756.014 171.069 750.254 170.344 743.171 170.344C742.915 170.344 742.403 170.344 741.635 170.344C740.867 170.344 740.355 170.344 740.099 170.344C733.272 170.344 727.726 171.112 723.459 172.648C719.192 174.184 716.078 176.403 714.115 179.304C712.152 182.205 711.171 185.875 711.171 190.312C711.171 194.92 712.152 198.76 714.115 201.832C716.078 204.904 719.192 207.208 723.459 208.744C727.726 210.28 733.272 211.091 740.099 211.176C740.355 211.176 740.867 211.176 741.635 211.176C742.403 211.176 742.915 211.176 743.171 211.176ZM733.059 249.832V130.024H751.363V249.832H733.059ZM806.1 225V156.136H825.94V197.096L859.476 156.136H877.78V225H857.94V184.04L824.532 225H806.1ZM940.367 225V202.088L943.183 205.288H924.111C914.212 205.288 906.447 203.24 900.815 199.144C895.183 195.048 892.367 189.16 892.367 181.48C892.367 173.288 895.311 167.016 901.199 162.664C907.172 158.312 915.194 156.136 925.263 156.136H958.159V225H940.367ZM891.343 225L909.647 198.76H929.999L912.591 225H891.343ZM940.367 195.944V167.272L943.183 172.392H925.647C921.551 172.392 918.351 173.16 916.047 174.696C913.828 176.232 912.719 178.707 912.719 182.12C912.719 188.691 916.943 191.976 925.391 191.976H943.183L940.367 195.944ZM1022.82 225V143.08L1031.78 152.04H1004.9V135.4H1043.55V225H1022.82Z" fill="black"/>
</svg>
