<svg width="1159" height="391" viewBox="0 0 1159 391" fill="none" xmlns="http://www.w3.org/2000/svg">
<path d="M0 0H1159V391H0V0Z" fill="#414141"/>
<path d="M150.559 219.368C138.953 219.368 129.097 217.832 120.991 214.76C112.969 211.688 106.868 207.251 102.687 201.448C98.5052 195.56 96.4145 188.392 96.4145 179.944C96.4145 171.496 98.5052 164.371 102.687 158.568C106.868 152.68 112.969 148.2 120.991 145.128C129.097 142.056 138.953 140.52 150.559 140.52C150.729 140.52 151.199 140.52 151.967 140.52C152.82 140.52 153.631 140.52 154.399 140.52C155.252 140.52 155.721 140.52 155.807 140.52C167.327 140.52 177.055 142.056 184.991 145.128C193.012 148.2 199.071 152.68 203.167 158.568C207.263 164.456 209.311 171.581 209.311 179.944C209.311 188.221 207.263 195.347 203.167 201.32C199.156 207.208 193.225 211.688 185.375 214.76C177.609 217.832 168.095 219.368 156.831 219.368C156.575 219.368 155.977 219.368 155.039 219.368C154.1 219.368 153.161 219.368 152.223 219.368C151.369 219.368 150.815 219.368 150.559 219.368ZM152.479 203.368C152.735 203.368 153.076 203.368 153.503 203.368C153.929 203.368 154.228 203.368 154.399 203.368C162.249 203.368 168.735 202.515 173.855 200.808C179.06 199.016 182.943 196.413 185.503 193C188.063 189.501 189.343 185.107 189.343 179.816C189.343 174.525 188.02 170.173 185.375 166.76C182.729 163.347 178.847 160.829 173.727 159.208C168.692 157.501 162.335 156.648 154.655 156.648C154.484 156.648 154.143 156.648 153.631 156.648C153.204 156.648 152.82 156.648 152.479 156.648C144.372 156.648 137.673 157.459 132.383 159.08C127.092 160.701 123.124 163.261 120.479 166.76C117.833 170.173 116.511 174.568 116.511 179.944C116.511 185.32 117.919 189.757 120.735 193.256C123.551 196.669 127.604 199.229 132.895 200.936C138.271 202.557 144.799 203.368 152.479 203.368ZM143.391 228.968V131.56H162.463V228.968H143.391ZM255.544 226.024C248.205 226.024 241.677 224.488 235.96 221.416C230.328 218.344 225.848 214.163 222.52 208.872C219.277 203.496 217.656 197.395 217.656 190.568C217.656 183.656 219.277 177.555 222.52 172.264C225.848 166.888 230.328 162.707 235.96 159.72C241.677 156.648 248.205 155.112 255.544 155.112C262.797 155.112 269.282 156.648 275 159.72C280.717 162.707 285.197 166.845 288.44 172.136C291.682 177.427 293.304 183.571 293.304 190.568C293.304 197.395 291.682 203.496 288.44 208.872C285.197 214.163 280.717 218.344 275 221.416C269.282 224.488 262.797 226.024 255.544 226.024ZM255.544 209.64C258.872 209.64 261.858 208.872 264.504 207.336C267.149 205.8 269.24 203.624 270.776 200.808C272.312 197.907 273.08 194.493 273.08 190.568C273.08 186.557 272.312 183.144 270.776 180.328C269.24 177.512 267.149 175.336 264.504 173.8C261.858 172.264 258.872 171.496 255.544 171.496C252.216 171.496 249.229 172.264 246.583 173.8C243.938 175.336 241.805 177.512 240.184 180.328C238.648 183.144 237.88 186.557 237.88 190.568C237.88 194.493 238.648 197.907 240.184 200.808C241.805 203.624 243.938 205.8 246.583 207.336C249.229 208.872 252.216 209.64 255.544 209.64ZM319.258 225V167.912L323.738 172.52H295.962V156.136H362.394V172.52H334.618L339.098 167.912V225H319.258ZM402.419 226.024C395.08 226.024 388.552 224.488 382.835 221.416C377.203 218.344 372.723 214.163 369.395 208.872C366.152 203.496 364.531 197.395 364.531 190.568C364.531 183.656 366.152 177.555 369.395 172.264C372.723 166.888 377.203 162.707 382.835 159.72C388.552 156.648 395.08 155.112 402.419 155.112C409.672 155.112 416.157 156.648 421.875 159.72C427.592 162.707 432.072 166.845 435.315 172.136C438.557 177.427 440.179 183.571 440.179 190.568C440.179 197.395 438.557 203.496 435.315 208.872C432.072 214.163 427.592 218.344 421.875 221.416C416.157 224.488 409.672 226.024 402.419 226.024ZM402.419 209.64C405.747 209.64 408.733 208.872 411.379 207.336C414.024 205.8 416.115 203.624 417.651 200.808C419.187 197.907 419.955 194.493 419.955 190.568C419.955 186.557 419.187 183.144 417.651 180.328C416.115 177.512 414.024 175.336 411.379 173.8C408.733 172.264 405.747 171.496 402.419 171.496C399.091 171.496 396.104 172.264 393.458 173.8C390.813 175.336 388.68 177.512 387.059 180.328C385.523 183.144 384.755 186.557 384.755 190.568C384.755 194.493 385.523 197.907 387.059 200.808C388.68 203.624 390.813 205.8 393.458 207.336C396.104 208.872 399.091 209.64 402.419 209.64ZM453.913 225V156.136H509.081V172.52H469.273L473.753 168.168V225H453.913ZM560.239 226.024C554.436 226.024 549.359 224.744 545.007 222.184C540.655 219.624 537.241 215.741 534.767 210.536C532.377 205.245 531.183 198.589 531.183 190.568C531.183 182.461 532.335 175.805 534.639 170.6C536.943 165.395 540.271 161.512 544.623 158.952C548.975 156.392 554.18 155.112 560.239 155.112C566.724 155.112 572.527 156.605 577.646 159.592C582.852 162.493 586.948 166.589 589.935 171.88C593.007 177.171 594.543 183.4 594.543 190.568C594.543 197.821 593.007 204.093 589.935 209.384C586.948 214.675 582.852 218.771 577.646 221.672C572.527 224.573 566.724 226.024 560.239 226.024ZM519.535 249.832V156.136H538.607V170.216L538.223 190.696L539.503 211.048V249.832H519.535ZM556.783 209.64C560.111 209.64 563.055 208.872 565.615 207.336C568.26 205.8 570.351 203.624 571.887 200.808C573.508 197.907 574.319 194.493 574.319 190.568C574.319 186.557 573.508 183.144 571.887 180.328C570.351 177.512 568.26 175.336 565.615 173.8C563.055 172.264 560.111 171.496 556.783 171.496C553.455 171.496 550.468 172.264 547.823 173.8C545.177 175.336 543.087 177.512 541.551 180.328C540.015 183.144 539.247 186.557 539.247 190.568C539.247 194.493 540.015 197.907 541.551 200.808C543.087 203.624 545.177 205.8 547.823 207.336C550.468 208.872 553.455 209.64 556.783 209.64ZM648.629 225V211.56L647.349 208.616V184.552C647.349 180.285 646.026 176.957 643.381 174.568C640.821 172.179 636.853 170.984 631.477 170.984C627.807 170.984 624.181 171.581 620.597 172.776C617.098 173.885 614.111 175.421 611.637 177.384L604.469 163.432C608.223 160.787 612.746 158.739 618.037 157.288C623.327 155.837 628.703 155.112 634.165 155.112C644.661 155.112 652.81 157.587 658.613 162.536C664.415 167.485 667.317 175.208 667.317 185.704V225H648.629ZM627.637 226.024C622.261 226.024 617.653 225.128 613.812 223.336C609.973 221.459 607.029 218.941 604.981 215.784C602.933 212.627 601.909 209.085 601.909 205.16C601.909 201.064 602.89 197.48 604.853 194.408C606.901 191.336 610.101 188.947 614.453 187.24C618.805 185.448 624.479 184.552 631.477 184.552H649.781V196.2H633.653C628.959 196.2 625.717 196.968 623.925 198.504C622.218 200.04 621.365 201.96 621.365 204.264C621.365 206.824 622.346 208.872 624.309 210.408C626.357 211.859 629.13 212.584 632.629 212.584C635.957 212.584 638.943 211.816 641.589 210.28C644.234 208.659 646.154 206.312 647.349 203.24L650.421 212.456C648.97 216.893 646.325 220.264 642.485 222.568C638.645 224.872 633.695 226.024 627.637 226.024ZM730.999 226.536C730.828 226.536 730.359 226.536 729.591 226.536C728.823 226.536 728.097 226.536 727.415 226.536C726.732 226.536 726.263 226.536 726.007 226.536C711.073 226.28 699.511 223.08 691.319 216.936C683.127 210.792 679.031 201.917 679.031 190.312C679.031 178.877 683.084 170.173 691.191 164.2C699.383 158.141 711.116 155.069 726.391 154.984C726.561 154.984 726.988 154.984 727.671 154.984C728.439 154.984 729.164 154.984 729.847 154.984C730.529 154.984 730.956 154.984 731.127 154.984C746.572 154.984 758.519 157.971 766.967 163.944C775.5 169.917 779.767 178.707 779.767 190.312C779.767 202.088 775.5 211.091 766.967 217.32C758.519 223.464 746.529 226.536 730.999 226.536ZM730.359 211.176C737.441 211.176 743.201 210.451 747.639 209C752.076 207.464 755.319 205.16 757.367 202.088C759.5 198.931 760.567 195.005 760.567 190.312C760.567 185.789 759.543 182.077 757.495 179.176C755.447 176.189 752.161 173.971 747.639 172.52C743.201 171.069 737.441 170.344 730.359 170.344C730.103 170.344 729.591 170.344 728.823 170.344C728.055 170.344 727.543 170.344 727.287 170.344C720.46 170.344 714.913 171.112 710.647 172.648C706.38 174.184 703.265 176.403 701.303 179.304C699.34 182.205 698.359 185.875 698.359 190.312C698.359 194.92 699.34 198.76 701.303 201.832C703.265 204.904 706.38 207.208 710.647 208.744C714.913 210.28 720.46 211.091 727.287 211.176C727.543 211.176 728.055 211.176 728.823 211.176C729.591 211.176 730.103 211.176 730.359 211.176ZM720.247 249.832V130.024H738.551V249.832H720.247ZM793.288 225V156.136H813.128V197.096L846.664 156.136H864.968V225H845.128V184.04L811.72 225H793.288ZM927.555 225V202.088L930.371 205.288H911.299C901.4 205.288 893.635 203.24 888.003 199.144C882.371 195.048 879.555 189.16 879.555 181.48C879.555 173.288 882.499 167.016 888.387 162.664C894.36 158.312 902.381 156.136 912.451 156.136H945.347V225H927.555ZM878.531 225L896.835 198.76H917.187L899.779 225H878.531ZM927.555 195.944V167.272L930.371 172.392H912.835C908.739 172.392 905.539 173.16 903.235 174.696C901.016 176.232 899.907 178.707 899.907 182.12C899.907 188.691 904.131 191.976 912.579 191.976H930.371L927.555 195.944ZM1025.24 226.536C1019.01 226.536 1012.82 225.725 1006.68 224.104C1000.53 222.397 995.326 220.008 991.059 216.936L999.124 201.064C1002.54 203.539 1006.5 205.501 1011.03 206.952C1015.55 208.403 1020.12 209.128 1024.72 209.128C1029.93 209.128 1034.02 208.104 1037.01 206.056C1040 204.008 1041.49 201.192 1041.49 197.608C1041.49 194.195 1040.17 191.507 1037.52 189.544C1034.88 187.581 1030.61 186.6 1024.72 186.6H1015.25V172.904L1040.21 144.616L1042.52 152.04H995.54V135.4H1058.26V148.84L1033.43 177.128L1022.93 171.112H1028.95C1039.96 171.112 1048.28 173.587 1053.91 178.536C1059.54 183.485 1062.36 189.843 1062.36 197.608C1062.36 202.643 1061.03 207.379 1058.39 211.816C1055.74 216.168 1051.69 219.709 1046.23 222.44C1040.77 225.171 1033.77 226.536 1025.24 226.536Z" fill="black"/>
</svg>
