<svg width="1159" height="391" viewBox="0 0 1159 391" fill="none" xmlns="http://www.w3.org/2000/svg">
<path d="M0 0H1159V391H0V0Z" fill="#414141"/>
<path d="M150.684 219.368C139.078 219.368 129.222 217.832 121.116 214.76C113.094 211.688 106.993 207.251 102.812 201.448C98.6302 195.56 96.5395 188.392 96.5395 179.944C96.5395 171.496 98.6302 164.371 102.812 158.568C106.993 152.68 113.094 148.2 121.116 145.128C129.222 142.056 139.078 140.52 150.684 140.52C150.854 140.52 151.324 140.52 152.092 140.52C152.945 140.52 153.756 140.52 154.524 140.52C155.377 140.52 155.846 140.52 155.932 140.52C167.452 140.52 177.18 142.056 185.116 145.128C193.137 148.2 199.196 152.68 203.292 158.568C207.388 164.456 209.436 171.581 209.436 179.944C209.436 188.221 207.388 195.347 203.292 201.32C199.281 207.208 193.35 211.688 185.5 214.76C177.734 217.832 168.22 219.368 156.956 219.368C156.7 219.368 156.102 219.368 155.164 219.368C154.225 219.368 153.286 219.368 152.348 219.368C151.494 219.368 150.94 219.368 150.684 219.368ZM152.604 203.368C152.86 203.368 153.201 203.368 153.628 203.368C154.054 203.368 154.353 203.368 154.524 203.368C162.374 203.368 168.86 202.515 173.98 200.808C179.185 199.016 183.068 196.413 185.628 193C188.188 189.501 189.468 185.107 189.468 179.816C189.468 174.525 188.145 170.173 185.5 166.76C182.854 163.347 178.972 160.829 173.852 159.208C168.817 157.501 162.46 156.648 154.78 156.648C154.609 156.648 154.268 156.648 153.756 156.648C153.329 156.648 152.945 156.648 152.604 156.648C144.497 156.648 137.798 157.459 132.508 159.08C127.217 160.701 123.249 163.261 120.604 166.76C117.958 170.173 116.636 174.568 116.636 179.944C116.636 185.32 118.044 189.757 120.86 193.256C123.676 196.669 127.729 199.229 133.02 200.936C138.396 202.557 144.924 203.368 152.604 203.368ZM143.516 228.968V131.56H162.588V228.968H143.516ZM255.669 226.024C248.33 226.024 241.802 224.488 236.085 221.416C230.453 218.344 225.973 214.163 222.645 208.872C219.402 203.496 217.781 197.395 217.781 190.568C217.781 183.656 219.402 177.555 222.645 172.264C225.973 166.888 230.453 162.707 236.085 159.72C241.802 156.648 248.33 155.112 255.669 155.112C262.922 155.112 269.407 156.648 275.125 159.72C280.842 162.707 285.322 166.845 288.565 172.136C291.807 177.427 293.429 183.571 293.429 190.568C293.429 197.395 291.807 203.496 288.565 208.872C285.322 214.163 280.842 218.344 275.125 221.416C269.407 224.488 262.922 226.024 255.669 226.024ZM255.669 209.64C258.997 209.64 261.983 208.872 264.629 207.336C267.274 205.8 269.365 203.624 270.901 200.808C272.437 197.907 273.205 194.493 273.205 190.568C273.205 186.557 272.437 183.144 270.901 180.328C269.365 177.512 267.274 175.336 264.629 173.8C261.983 172.264 258.997 171.496 255.669 171.496C252.341 171.496 249.354 172.264 246.708 173.8C244.063 175.336 241.93 177.512 240.309 180.328C238.773 183.144 238.005 186.557 238.005 190.568C238.005 194.493 238.773 197.907 240.309 200.808C241.93 203.624 244.063 205.8 246.708 207.336C249.354 208.872 252.341 209.64 255.669 209.64ZM319.383 225V167.912L323.863 172.52H296.087V156.136H362.519V172.52H334.743L339.223 167.912V225H319.383ZM402.544 226.024C395.205 226.024 388.677 224.488 382.96 221.416C377.328 218.344 372.848 214.163 369.52 208.872C366.277 203.496 364.656 197.395 364.656 190.568C364.656 183.656 366.277 177.555 369.52 172.264C372.848 166.888 377.328 162.707 382.96 159.72C388.677 156.648 395.205 155.112 402.544 155.112C409.797 155.112 416.282 156.648 422 159.72C427.717 162.707 432.197 166.845 435.44 172.136C438.682 177.427 440.304 183.571 440.304 190.568C440.304 197.395 438.682 203.496 435.44 208.872C432.197 214.163 427.717 218.344 422 221.416C416.282 224.488 409.797 226.024 402.544 226.024ZM402.544 209.64C405.872 209.64 408.858 208.872 411.504 207.336C414.149 205.8 416.24 203.624 417.776 200.808C419.312 197.907 420.08 194.493 420.08 190.568C420.08 186.557 419.312 183.144 417.776 180.328C416.24 177.512 414.149 175.336 411.504 173.8C408.858 172.264 405.872 171.496 402.544 171.496C399.216 171.496 396.229 172.264 393.583 173.8C390.938 175.336 388.805 177.512 387.184 180.328C385.648 183.144 384.88 186.557 384.88 190.568C384.88 194.493 385.648 197.907 387.184 200.808C388.805 203.624 390.938 205.8 393.583 207.336C396.229 208.872 399.216 209.64 402.544 209.64ZM454.038 225V156.136H509.206V172.52H469.398L473.878 168.168V225H454.038ZM560.364 226.024C554.561 226.024 549.484 224.744 545.132 222.184C540.78 219.624 537.366 215.741 534.892 210.536C532.502 205.245 531.308 198.589 531.308 190.568C531.308 182.461 532.46 175.805 534.764 170.6C537.068 165.395 540.396 161.512 544.748 158.952C549.1 156.392 554.305 155.112 560.364 155.112C566.849 155.112 572.652 156.605 577.771 159.592C582.977 162.493 587.073 166.589 590.06 171.88C593.132 177.171 594.668 183.4 594.668 190.568C594.668 197.821 593.132 204.093 590.06 209.384C587.073 214.675 582.977 218.771 577.771 221.672C572.652 224.573 566.849 226.024 560.364 226.024ZM519.66 249.832V156.136H538.732V170.216L538.348 190.696L539.628 211.048V249.832H519.66ZM556.908 209.64C560.236 209.64 563.18 208.872 565.74 207.336C568.385 205.8 570.476 203.624 572.012 200.808C573.633 197.907 574.444 194.493 574.444 190.568C574.444 186.557 573.633 183.144 572.012 180.328C570.476 177.512 568.385 175.336 565.74 173.8C563.18 172.264 560.236 171.496 556.908 171.496C553.58 171.496 550.593 172.264 547.948 173.8C545.302 175.336 543.212 177.512 541.676 180.328C540.14 183.144 539.372 186.557 539.372 190.568C539.372 194.493 540.14 197.907 541.676 200.808C543.212 203.624 545.302 205.8 547.948 207.336C550.593 208.872 553.58 209.64 556.908 209.64ZM648.754 225V211.56L647.474 208.616V184.552C647.474 180.285 646.151 176.957 643.506 174.568C640.946 172.179 636.978 170.984 631.602 170.984C627.932 170.984 624.306 171.581 620.722 172.776C617.223 173.885 614.236 175.421 611.762 177.384L604.594 163.432C608.348 160.787 612.871 158.739 618.162 157.288C623.452 155.837 628.828 155.112 634.29 155.112C644.786 155.112 652.935 157.587 658.738 162.536C664.54 167.485 667.442 175.208 667.442 185.704V225H648.754ZM627.762 226.024C622.386 226.024 617.778 225.128 613.938 223.336C610.098 221.459 607.154 218.941 605.106 215.784C603.058 212.627 602.034 209.085 602.034 205.16C602.034 201.064 603.015 197.48 604.978 194.408C607.026 191.336 610.226 188.947 614.578 187.24C618.93 185.448 624.604 184.552 631.602 184.552H649.906V196.2H633.778C629.084 196.2 625.842 196.968 624.05 198.504C622.343 200.04 621.49 201.96 621.49 204.264C621.49 206.824 622.471 208.872 624.434 210.408C626.482 211.859 629.255 212.584 632.754 212.584C636.082 212.584 639.068 211.816 641.714 210.28C644.359 208.659 646.279 206.312 647.474 203.24L650.546 212.456C649.095 216.893 646.45 220.264 642.61 222.568C638.77 224.872 633.82 226.024 627.762 226.024ZM731.124 226.536C730.953 226.536 730.484 226.536 729.716 226.536C728.948 226.536 728.222 226.536 727.54 226.536C726.857 226.536 726.388 226.536 726.132 226.536C711.198 226.28 699.636 223.08 691.444 216.936C683.252 210.792 679.156 201.917 679.156 190.312C679.156 178.877 683.209 170.173 691.316 164.2C699.508 158.141 711.241 155.069 726.516 154.984C726.686 154.984 727.113 154.984 727.796 154.984C728.564 154.984 729.289 154.984 729.972 154.984C730.654 154.984 731.081 154.984 731.252 154.984C746.697 154.984 758.644 157.971 767.092 163.944C775.625 169.917 779.892 178.707 779.892 190.312C779.892 202.088 775.625 211.091 767.092 217.32C758.644 223.464 746.654 226.536 731.124 226.536ZM730.484 211.176C737.566 211.176 743.326 210.451 747.764 209C752.201 207.464 755.444 205.16 757.492 202.088C759.625 198.931 760.692 195.005 760.692 190.312C760.692 185.789 759.668 182.077 757.62 179.176C755.572 176.189 752.286 173.971 747.764 172.52C743.326 171.069 737.566 170.344 730.484 170.344C730.228 170.344 729.716 170.344 728.948 170.344C728.18 170.344 727.668 170.344 727.412 170.344C720.585 170.344 715.038 171.112 710.772 172.648C706.505 174.184 703.39 176.403 701.428 179.304C699.465 182.205 698.484 185.875 698.484 190.312C698.484 194.92 699.465 198.76 701.428 201.832C703.39 204.904 706.505 207.208 710.772 208.744C715.038 210.28 720.585 211.091 727.412 211.176C727.668 211.176 728.18 211.176 728.948 211.176C729.716 211.176 730.228 211.176 730.484 211.176ZM720.372 249.832V130.024H738.676V249.832H720.372ZM793.413 225V156.136H813.253V197.096L846.789 156.136H865.093V225H845.253V184.04L811.845 225H793.413ZM927.68 225V202.088L930.496 205.288H911.424C901.525 205.288 893.76 203.24 888.128 199.144C882.496 195.048 879.68 189.16 879.68 181.48C879.68 173.288 882.624 167.016 888.512 162.664C894.485 158.312 902.506 156.136 912.576 156.136H945.472V225H927.68ZM878.656 225L896.96 198.76H917.312L899.904 225H878.656ZM927.68 195.944V167.272L930.496 172.392H912.96C908.864 172.392 905.664 173.16 903.36 174.696C901.141 176.232 900.032 178.707 900.032 182.12C900.032 188.691 904.256 191.976 912.704 191.976H930.496L927.68 195.944ZM995.536 225V211.56L1030.1 178.92C1032.83 176.445 1034.83 174.227 1036.11 172.264C1037.39 170.301 1038.25 168.509 1038.67 166.888C1039.18 165.267 1039.44 163.773 1039.44 162.408C1039.44 158.824 1038.2 156.093 1035.73 154.216C1033.34 152.253 1029.8 151.272 1025.1 151.272C1021.35 151.272 1017.85 151.997 1014.61 153.448C1011.45 154.899 1008.76 157.16 1006.54 160.232L991.441 150.504C994.854 145.384 999.633 141.331 1005.78 138.344C1011.92 135.357 1019 133.864 1027.02 133.864C1033.68 133.864 1039.48 134.973 1044.43 137.192C1049.47 139.325 1053.35 142.355 1056.08 146.28C1058.9 150.205 1060.3 154.899 1060.3 160.36C1060.3 163.261 1059.92 166.163 1059.15 169.064C1058.47 171.88 1057.02 174.867 1054.8 178.024C1052.67 181.181 1049.51 184.723 1045.33 188.648L1016.66 215.656L1012.69 208.104H1063.25V225H995.536Z" fill="black"/>
</svg>
