<svg width="31" height="31" viewBox="0 0 31 31" fill="none" xmlns="http://www.w3.org/2000/svg">
<path d="M15.3333 0C12.3008 0 9.33614 0.899281 6.81459 2.58413C4.29304 4.26897 2.32773 6.66371 1.16719 9.46552C0.00664993 12.2672 -0.297008 15.3504 0.294629 18.3247C0.886265 21.2991 2.34663 24.0312 4.49104 26.1757C6.63544 28.3201 9.36757 29.7804 12.342 30.3721C15.3163 30.9637 18.3994 30.66 21.2012 29.4994C24.003 28.3389 26.3977 26.3737 28.0826 23.8521C29.7674 21.3306 30.6667 18.3661 30.6667 15.3333C30.6667 11.2667 29.0511 7.36659 26.1757 4.49104C23.3001 1.61546 19.3999 0 15.3333 0ZM22.8658 10.5033L20.355 22.3675C20.1633 23.2108 19.665 23.4025 18.9558 23.0192L15.1225 20.1825L13.2058 21.965C13.1156 22.0829 12.9996 22.1787 12.8668 22.2452C12.7339 22.3115 12.5877 22.3468 12.4392 22.3483L12.7075 18.515L19.7992 12.0942C20.125 11.8258 19.7992 11.6725 19.3392 11.9408L10.6375 17.4033L6.80417 16.215C5.98 15.9658 5.96083 15.3908 6.97667 15.0075L21.7542 9.2575C22.4825 9.04667 23.0958 9.46833 22.8658 10.5033Z" fill="#303030"/>
</svg>
